{
	"asset":{
		"generator":"Khronos glTF Blender I/O v5.0.21",
		"version":"2.0"
	},
	"extensionsUsed":[
		"KHR_materials_specular"
	],
	"scene":0,
	"scenes":[
		{
			"name":"Scene",
			"nodes":[
				0,
				1
			]
		}
	],
	"nodes":[
		{
			"mesh":0,
			"name":"Cube"
		},
		{
			"mesh":1,
			"name":"CM QUADRO ELETRICO NR12",
			"rotation":[
				0.7071068286895752,
				0,
				0,
				0.7071068286895752
			]
		}
	],
	"materials":[
		{
			"doubleSided":true,
			"name":"Material",
			"pbrMetallicRoughness":{
				"baseColorFactor":[
					0.800000011920929,
					0.800000011920929,
					0.800000011920929,
					1
				],
				"metallicFactor":0,
				"roughnessFactor":0.5
			}
		},
		{
			"doubleSided":true,
			"extensions":{
				"KHR_materials_specular":{
					"specularFactor":0
				}
			},
			"name":"CM_QUADRO_ELETRICO_NR12Material0",
			"pbrMetallicRoughness":{
				"baseColorFactor":[
					0.33173900842666626,
					0.3408699929714203,
					0.3499999940395355,
					1
				],
				"metallicFactor":0,
				"roughnessFactor":0.8585786819458008
			}
		},
		{
			"doubleSided":true,
			"extensions":{
				"KHR_materials_specular":{
					"specularFactor":0
				}
			},
			"name":"CM_QUADRO_ELETRICO_NR12Material1",
			"pbrMetallicRoughness":{
				"baseColorFactor":[
					0.20000000298023224,
					0.20000000298023224,
					0.20000000298023224,
					1
				],
				"metallicFactor":0,
				"roughnessFactor":0.8585786819458008
			}
		},
		{
			"doubleSided":true,
			"extensions":{
				"KHR_materials_specular":{
					"specularFactor":0
				}
			},
			"name":"CM_QUADRO_ELETRICO_NR12Material2",
			"pbrMetallicRoughness":{
				"baseColorFactor":[
					0.8999999761581421,
					0.8999999761581421,
					0,
					1
				],
				"metallicFactor":0,
				"roughnessFactor":0.8585786819458008
			}
		},
		{
			"doubleSided":true,
			"extensions":{
				"KHR_materials_specular":{
					"specularFactor":0
				}
			},
			"name":"CM_QUADRO_ELETRICO_NR12Material3",
			"pbrMetallicRoughness":{
				"baseColorFactor":[
					0.9800000190734863,
					0.9800000190734863,
					0.9800000190734863,
					1
				],
				"metallicFactor":0,
				"roughnessFactor":0.8585786819458008
			}
		},
		{
			"doubleSided":true,
			"extensions":{
				"KHR_materials_specular":{
					"specularFactor":0
				}
			},
			"name":"CM_QUADRO_ELETRICO_NR12Material4",
			"pbrMetallicRoughness":{
				"baseColorFactor":[
					0,
					0,
					1,
					1
				],
				"metallicFactor":0,
				"roughnessFactor":0.8585786819458008
			}
		},
		{
			"doubleSided":true,
			"extensions":{
				"KHR_materials_specular":{
					"specularFactor":0
				}
			},
			"name":"CM_QUADRO_ELETRICO_NR12Material5",
			"pbrMetallicRoughness":{
				"baseColorFactor":[
					0,
					0,
					0.800000011920929,
					1
				],
				"metallicFactor":0,
				"roughnessFactor":0.8585786819458008
			}
		},
		{
			"doubleSided":true,
			"extensions":{
				"KHR_materials_specular":{
					"specularFactor":0
				}
			},
			"name":"CM_QUADRO_ELETRICO_NR12Material6",
			"pbrMetallicRoughness":{
				"metallicFactor":0,
				"roughnessFactor":0.8585786819458008
			}
		},
		{
			"doubleSided":true,
			"extensions":{
				"KHR_materials_specular":{
					"specularFactor":0
				}
			},
			"name":"CM_QUADRO_ELETRICO_NR12Material7",
			"pbrMetallicRoughness":{
				"baseColorFactor":[
					0.6451810002326965,
					0.6789159774780273,
					0.699999988079071,
					1
				],
				"metallicFactor":0,
				"roughnessFactor":0.8585786819458008
			}
		},
		{
			"doubleSided":true,
			"extensions":{
				"KHR_materials_specular":{
					"specularFactor":0
				}
			},
			"name":"CM_QUADRO_ELETRICO_NR12Material8",
			"pbrMetallicRoughness":{
				"baseColorFactor":[
					0.8999999761581421,
					0.8999999761581421,
					0.8999999761581421,
					1
				],
				"metallicFactor":0,
				"roughnessFactor":0.8585786819458008
			}
		},
		{
			"doubleSided":true,
			"extensions":{
				"KHR_materials_specular":{
					"specularFactor":0
				}
			},
			"name":"CM_QUADRO_ELETRICO_NR12Material9",
			"pbrMetallicRoughness":{
				"baseColorFactor":[
					0.8901960253715515,
					0.8189799785614014,
					0.8189799785614014,
					1
				],
				"metallicFactor":0,
				"roughnessFactor":0.8585786819458008
			}
		}
	],
	"meshes":[
		{
			"name":"Cube",
			"primitives":[
				{
					"attributes":{
						"POSITION":0,
						"NORMAL":1,
						"TEXCOORD_0":2
					},
					"indices":3,
					"material":0
				}
			]
		},
		{
			"name":"CM QUADRO ELETRICO NR12",
			"primitives":[
				{
					"attributes":{
						"POSITION":4,
						"NORMAL":5
					},
					"indices":6,
					"material":1
				},
				{
					"attributes":{
						"POSITION":7,
						"NORMAL":8
					},
					"indices":9,
					"material":2
				},
				{
					"attributes":{
						"POSITION":10,
						"NORMAL":11
					},
					"indices":12,
					"material":3
				},
				{
					"attributes":{
						"POSITION":13,
						"NORMAL":14
					},
					"indices":15,
					"material":4
				},
				{
					"attributes":{
						"POSITION":16,
						"NORMAL":17
					},
					"indices":18,
					"material":5
				},
				{
					"attributes":{
						"POSITION":19,
						"NORMAL":20
					},
					"indices":21,
					"material":6
				},
				{
					"attributes":{
						"POSITION":22,
						"NORMAL":23
					},
					"indices":24,
					"material":7
				},
				{
					"attributes":{
						"POSITION":25,
						"NORMAL":26
					},
					"indices":27,
					"material":8
				},
				{
					"attributes":{
						"POSITION":28,
						"NORMAL":29
					},
					"indices":30,
					"material":9
				},
				{
					"attributes":{
						"POSITION":31,
						"NORMAL":32
					},
					"indices":33,
					"material":10
				}
			]
		}
	],
	"accessors":[
		{
			"bufferView":0,
			"componentType":5126,
			"count":24,
			"max":[
				1,
				1,
				1
			],
			"min":[
				-1,
				-1,
				-1
			],
			"type":"VEC3"
		},
		{
			"bufferView":1,
			"componentType":5126,
			"count":24,
			"type":"VEC3"
		},
		{
			"bufferView":2,
			"componentType":5126,
			"count":24,
			"type":"VEC2"
		},
		{
			"bufferView":3,
			"componentType":5123,
			"count":36,
			"type":"SCALAR"
		},
		{
			"bufferView":4,
			"componentType":5126,
			"count":2076,
			"max":[
				6,
				105,
				140
			],
			"min":[
				-6,
				-105,
				-140
			],
			"type":"VEC3"
		},
		{
			"bufferView":5,
			"componentType":5126,
			"count":2076,
			"type":"VEC3"
		},
		{
			"bufferView":6,
			"componentType":5123,
			"count":4764,
			"type":"SCALAR"
		},
		{
			"bufferView":7,
			"componentType":5126,
			"count":616,
			"max":[
				126,
				50,
				97
			],
			"min":[
				6,
				-50,
				-11
			],
			"type":"VEC3"
		},
		{
			"bufferView":8,
			"componentType":5126,
			"count":616,
			"type":"VEC3"
		},
		{
			"bufferView":9,
			"componentType":5123,
			"count":1200,
			"type":"SCALAR"
		},
		{
			"bufferView":10,
			"componentType":5126,
			"count":32,
			"max":[
				126,
				35.75,
				97
			],
			"min":[
				123.21989440917969,
				-35.75,
				-11
			],
			"type":"VEC3"
		},
		{
			"bufferView":11,
			"componentType":5126,
			"count":32,
			"type":"VEC3"
		},
		{
			"bufferView":12,
			"componentType":5123,
			"count":48,
			"type":"SCALAR"
		},
		{
			"bufferView":13,
			"componentType":5126,
			"count":224,
			"max":[
				62,
				36.9273567199707,
				26.48177146911621
			],
			"min":[
				27,
				-37.62968063354492,
				-25.48177146911621
			],
			"type":"VEC3"
		},
		{
			"bufferView":14,
			"componentType":5126,
			"count":224,
			"type":"VEC3"
		},
		{
			"bufferView":15,
			"componentType":5123,
			"count":624,
			"type":"SCALAR"
		},
		{
			"bufferView":16,
			"componentType":5126,
			"count":3190,
			"max":[
				81,
				39.5,
				28
			],
			"min":[
				6,
				-39.5,
				-27
			],
			"type":"VEC3"
		},
		{
			"bufferView":17,
			"componentType":5126,
			"count":3190,
			"type":"VEC3"
		},
		{
			"bufferView":18,
			"componentType":5123,
			"count":5184,
			"type":"SCALAR"
		},
		{
			"bufferView":19,
			"componentType":5126,
			"count":188,
			"max":[
				66.75,
				39.5,
				28
			],
			"min":[
				6,
				-39.5,
				-27
			],
			"type":"VEC3"
		},
		{
			"bufferView":20,
			"componentType":5126,
			"count":188,
			"type":"VEC3"
		},
		{
			"bufferView":21,
			"componentType":5123,
			"count":480,
			"type":"SCALAR"
		},
		{
			"bufferView":22,
			"componentType":5126,
			"count":612,
			"max":[
				67,
				27.5,
				28
			],
			"min":[
				63.892051696777344,
				10.5,
				-27
			],
			"type":"VEC3"
		},
		{
			"bufferView":23,
			"componentType":5126,
			"count":612,
			"type":"VEC3"
		},
		{
			"bufferView":24,
			"componentType":5123,
			"count":840,
			"type":"SCALAR"
		},
		{
			"bufferView":25,
			"componentType":5126,
			"count":528,
			"max":[
				14,
				75,
				97
			],
			"min":[
				6,
				-25,
				-128
			],
			"type":"VEC3"
		},
		{
			"bufferView":26,
			"componentType":5126,
			"count":528,
			"type":"VEC3"
		},
		{
			"bufferView":27,
			"componentType":5123,
			"count":1032,
			"type":"SCALAR"
		},
		{
			"bufferView":28,
			"componentType":5126,
			"count":15006,
			"max":[
				36,
				102.5,
				135
			],
			"min":[
				6,
				-102.5,
				-65
			],
			"type":"VEC3"
		},
		{
			"bufferView":29,
			"componentType":5126,
			"count":15006,
			"type":"VEC3"
		},
		{
			"bufferView":30,
			"componentType":5123,
			"count":28200,
			"type":"SCALAR"
		},
		{
			"bufferView":31,
			"componentType":5126,
			"count":5916,
			"max":[
				43,
				75,
				-81
			],
			"min":[
				8,
				-27,
				-138
			],
			"type":"VEC3"
		},
		{
			"bufferView":32,
			"componentType":5126,
			"count":5916,
			"type":"VEC3"
		},
		{
			"bufferView":33,
			"componentType":5123,
			"count":11628,
			"type":"SCALAR"
		}
	],
	"bufferViews":[
		{
			"buffer":0,
			"byteLength":288,
			"byteOffset":0,
			"target":34962
		},
		{
			"buffer":0,
			"byteLength":288,
			"byteOffset":288,
			"target":34962
		},
		{
			"buffer":0,
			"byteLength":192,
			"byteOffset":576,
			"target":34962
		},
		{
			"buffer":0,
			"byteLength":72,
			"byteOffset":768,
			"target":34963
		},
		{
			"buffer":0,
			"byteLength":24912,
			"byteOffset":840,
			"target":34962
		},
		{
			"buffer":0,
			"byteLength":24912,
			"byteOffset":25752,
			"target":34962
		},
		{
			"buffer":0,
			"byteLength":9528,
			"byteOffset":50664,
			"target":34963
		},
		{
			"buffer":0,
			"byteLength":7392,
			"byteOffset":60192,
			"target":34962
		},
		{
			"buffer":0,
			"byteLength":7392,
			"byteOffset":67584,
			"target":34962
		},
		{
			"buffer":0,
			"byteLength":2400,
			"byteOffset":74976,
			"target":34963
		},
		{
			"buffer":0,
			"byteLength":384,
			"byteOffset":77376,
			"target":34962
		},
		{
			"buffer":0,
			"byteLength":384,
			"byteOffset":77760,
			"target":34962
		},
		{
			"buffer":0,
			"byteLength":96,
			"byteOffset":78144,
			"target":34963
		},
		{
			"buffer":0,
			"byteLength":2688,
			"byteOffset":78240,
			"target":34962
		},
		{
			"buffer":0,
			"byteLength":2688,
			"byteOffset":80928,
			"target":34962
		},
		{
			"buffer":0,
			"byteLength":1248,
			"byteOffset":83616,
			"target":34963
		},
		{
			"buffer":0,
			"byteLength":38280,
			"byteOffset":84864,
			"target":34962
		},
		{
			"buffer":0,
			"byteLength":38280,
			"byteOffset":123144,
			"target":34962
		},
		{
			"buffer":0,
			"byteLength":10368,
			"byteOffset":161424,
			"target":34963
		},
		{
			"buffer":0,
			"byteLength":2256,
			"byteOffset":171792,
			"target":34962
		},
		{
			"buffer":0,
			"byteLength":2256,
			"byteOffset":174048,
			"target":34962
		},
		{
			"buffer":0,
			"byteLength":960,
			"byteOffset":176304,
			"target":34963
		},
		{
			"buffer":0,
			"byteLength":7344,
			"byteOffset":177264,
			"target":34962
		},
		{
			"buffer":0,
			"byteLength":7344,
			"byteOffset":184608,
			"target":34962
		},
		{
			"buffer":0,
			"byteLength":1680,
			"byteOffset":191952,
			"target":34963
		},
		{
			"buffer":0,
			"byteLength":6336,
			"byteOffset":193632,
			"target":34962
		},
		{
			"buffer":0,
			"byteLength":6336,
			"byteOffset":199968,
			"target":34962
		},
		{
			"buffer":0,
			"byteLength":2064,
			"byteOffset":206304,
			"target":34963
		},
		{
			"buffer":0,
			"byteLength":180072,
			"byteOffset":208368,
			"target":34962
		},
		{
			"buffer":0,
			"byteLength":180072,
			"byteOffset":388440,
			"target":34962
		},
		{
			"buffer":0,
			"byteLength":56400,
			"byteOffset":568512,
			"target":34963
		},
		{
			"buffer":0,
			"byteLength":70992,
			"byteOffset":624912,
			"target":34962
		},
		{
			"buffer":0,
			"byteLength":70992,
			"byteOffset":695904,
			"target":34962
		},
		{
			"buffer":0,
			"byteLength":23256,
			"byteOffset":766896,
			"target":34963
		}
	],
	"buffers":[
		{
			"byteLength":790152,
			"uri":"Untitled.bin"
		}
	]
}
